<svg width="16" height="14" viewBox="0 0 16 14" fill="none" xmlns="http://www.w3.org/2000/svg">
<path d="M14.1875 2.5H11.375V1.9375C11.3731 1.49052 11.1948 1.06237 10.8787 0.746302C10.5626 0.430235 10.1345 0.251851 9.6875 0.25H6.3125C5.86552 0.251851 5.43737 0.430235 5.1213 0.746302C4.80523 1.06237 4.62685 1.49052 4.625 1.9375V2.5H1.8125C1.51413 2.5 1.22798 2.61853 1.017 2.8295C0.806026 3.04048 0.6875 3.32663 0.6875 3.625V12.625C0.6875 12.9234 0.806026 13.2095 1.017 13.4205C1.22798 13.6315 1.51413 13.75 1.8125 13.75H14.1875C14.4859 13.75 14.772 13.6315 14.983 13.4205C15.194 13.2095 15.3125 12.9234 15.3125 12.625V3.625C15.3125 3.32663 15.194 3.04048 14.983 2.8295C14.772 2.61853 14.4859 2.5 14.1875 2.5ZM5.75 1.9375C5.75 1.78832 5.80926 1.64524 5.91475 1.53975C6.02024 1.43426 6.16332 1.375 6.3125 1.375H9.6875C9.83668 1.375 9.97976 1.43426 10.0852 1.53975C10.1907 1.64524 10.25 1.78832 10.25 1.9375V2.5H5.75V1.9375ZM14.1875 3.625V6.55C12.2894 7.58481 10.1618 8.12637 8 8.125C5.83816 8.12637 3.71059 7.58481 1.8125 6.55V3.625H14.1875ZM14.1875 12.625H1.8125V7.81563C3.73837 8.76008 5.85501 9.25076 8 9.25C10.1451 9.25151 12.2619 8.76079 14.1875 7.81563V12.625ZM6.59375 6.4375C6.59375 6.28832 6.65301 6.14524 6.7585 6.03975C6.86399 5.93426 7.00707 5.875 7.15625 5.875H8.84375C8.99293 5.875 9.13601 5.93426 9.2415 6.03975C9.34699 6.14524 9.40625 6.28832 9.40625 6.4375C9.40625 6.58668 9.34699 6.72976 9.2415 6.83525C9.13601 6.94074 8.99293 7 8.84375 7H7.15625C7.00707 7 6.86399 6.94074 6.7585 6.83525C6.65301 6.72976 6.59375 6.58668 6.59375 6.4375Z" fill="#283138"/>
</svg>
