<svg width="16" height="16" viewBox="0 0 16 16" fill="none" xmlns="http://www.w3.org/2000/svg">
<path d="M6.34483 0C5.3209 0.00105455 4.33924 0.371588 3.61522 1.03031C2.89119 1.68903 2.48392 2.58215 2.48276 3.51373V6.01352C2.48311 6.43342 2.5989 6.84656 2.81959 7.21534L3.76631 8.79442L1.25518 10.2794C0.869248 10.5067 0.552135 10.8184 0.332857 11.1861C0.113579 11.5537 -0.00086255 11.9655 4.89477e-06 12.3837V15.0588H9.93104V14.0549H1.10345V12.3837C1.10294 12.1328 1.17161 11.8857 1.30318 11.6651C1.43475 11.4445 1.62503 11.2575 1.85659 11.1211L5.22418 9.12963L3.78831 6.73462C3.6559 6.51335 3.58642 6.26546 3.58621 6.01352V3.51373C3.58621 2.84808 3.87685 2.20971 4.39419 1.73903C4.91153 1.26835 5.6132 1.00392 6.34483 1.00392C7.07646 1.00392 7.77813 1.26835 8.29547 1.73903C8.81281 2.20971 9.10345 2.84808 9.10345 3.51373V6.01352C9.10324 6.26546 9.03376 6.51335 8.90135 6.73462L7.46552 9.12963L9.93104 10.5877V9.39034L8.92335 8.79426L9.87007 7.21515C10.0907 6.84644 10.2065 6.43335 10.2069 6.01352V3.51373C10.2057 2.58215 9.79847 1.68903 9.07444 1.03031C8.35042 0.371588 7.36876 0.00105455 6.34483 0ZM13.7931 12.0471V10.0392H12.6897V12.0471H10.4828V13.051H12.6897V15.0588H13.7931V13.051H16V12.0471H13.7931Z" fill="#283138"/>
</svg>
