<svg width="16" height="13" viewBox="0 0 16 13" fill="none" xmlns="http://www.w3.org/2000/svg">
<path d="M0.310051 1.99741L0.349999 2.86629C0.0865061 3.24934 -0.0343558 3.71264 0.00844121 4.17559L0.644617 11.1665C0.689715 11.6628 0.918687 12.1243 1.28658 12.4604C1.65448 12.7965 2.13472 12.983 2.63304 12.9832H8.79906V11.9845H2.63304C2.38389 11.9842 2.14382 11.8909 1.95997 11.7227C1.77612 11.5546 1.66175 11.3238 1.63933 11.0757L1.00315 4.08471C0.990667 3.94654 1.00711 3.80728 1.05142 3.67581C1.09574 3.54435 1.16696 3.42356 1.26054 3.32114C1.35412 3.21872 1.46802 3.13693 1.59497 3.08097C1.72192 3.02501 1.85913 2.99611 1.99786 2.99612H13.6028C13.7416 2.99611 13.8788 3.02501 14.0057 3.08097C14.1327 3.13693 14.2466 3.21872 14.3402 3.32114C14.4337 3.42356 14.505 3.54435 14.5493 3.67581C14.5936 3.80728 14.61 3.94654 14.5975 4.08471L14.3319 6.99094H15.3356L15.5913 4.17559C15.6164 3.89925 15.5836 3.62071 15.4951 3.35773C15.4066 3.09475 15.2643 2.85309 15.0772 2.64816C14.8901 2.44323 14.6624 2.27953 14.4086 2.16749C14.1547 2.05544 13.8803 1.99752 13.6028 1.99741H9.62598C9.09628 1.9973 8.58831 1.78678 8.21381 1.41217L7.38688 0.585242C7.01238 0.210628 6.50442 0.000113128 5.97471 0H2.30746C1.77772 0 1.26967 0.210441 0.895079 0.585029C0.520492 0.959616 0.310051 1.46767 0.310051 1.99741ZM5.97471 0.998706C6.23956 0.998763 6.49355 1.10402 6.6808 1.29133L7.38688 1.99741H1.99786C1.75818 1.99741 1.52847 2.03936 1.31575 2.11726L1.30876 1.97744C1.31399 1.71604 1.42151 1.46712 1.60824 1.28412C1.79497 1.10113 2.04601 0.998654 2.30746 0.998706H5.97471Z" fill="#283138"/>
</svg>
