<svg width="18" height="18" viewBox="0 0 18 18" fill="none" xmlns="http://www.w3.org/2000/svg">
<path d="M16.5001 7.125H15.2501C15.2488 5.96508 14.7875 4.85306 13.9673 4.03287C13.1471 3.21269 12.0351 2.75132 10.8751 2.75V1.5C12.3665 1.50165 13.7963 2.09482 14.8508 3.14935C15.9053 4.20389 16.4985 5.63367 16.5001 7.125ZM15.2501 17.125H15.1439C2.86264 16.4187 1.11889 6.05625 0.875144 2.89375C0.837048 2.39797 0.997446 1.90736 1.32106 1.52983C1.64467 1.1523 2.10499 0.918778 2.60077 0.880626C2.65035 0.876876 2.70014 0.875001 2.75014 0.875001H6.04389C6.29424 0.874758 6.5389 0.949694 6.74616 1.0901C6.95343 1.23051 7.11377 1.42992 7.20639 1.6625L8.15639 4C8.24786 4.22722 8.27056 4.4763 8.22167 4.71631C8.17278 4.95631 8.05446 5.17667 7.88139 5.35L6.55014 6.69375C6.75725 7.87583 7.32289 8.96562 8.17035 9.81532C9.01782 10.665 10.1061 11.2335 11.2876 11.4438L12.6439 10.1C12.8198 9.92885 13.0423 9.81328 13.2834 9.76771C13.5246 9.72214 13.7739 9.74859 14.0001 9.84375L16.3564 10.7875C16.5855 10.8831 16.7809 11.0446 16.9178 11.2517C17.0547 11.4587 17.1269 11.7018 17.1251 11.95V15.25C17.1251 15.7473 16.9276 16.2242 16.576 16.5758C16.2243 16.9275 15.7474 17.125 15.2501 17.125ZM2.75014 2.125C2.66807 2.12475 2.58675 2.14068 2.51082 2.17186C2.4349 2.20304 2.36586 2.24887 2.30765 2.30673C2.24944 2.36459 2.2032 2.43336 2.17156 2.50909C2.13992 2.58483 2.12352 2.66605 2.12327 2.74813C2.12327 2.76563 2.12389 2.78292 2.12514 2.8C2.41264 6.5 4.25639 15.25 15.2126 15.875C15.3781 15.8849 15.5407 15.8287 15.6647 15.7188C15.7887 15.6088 15.8639 15.4542 15.8739 15.2887L15.8751 15.25V11.95L13.5189 11.0062L11.7251 12.7875L11.4251 12.75C5.98764 12.0688 5.25014 6.63125 5.25014 6.575L5.21264 6.275L6.98764 4.48125L6.05014 2.125H2.75014Z" fill="#6B62E2"/>
</svg>
