<svg width="15" height="18" viewBox="0 0 15 18" fill="none" xmlns="http://www.w3.org/2000/svg">
<path d="M9.91683 9.20829C9.91683 9.04253 9.85098 8.88356 9.73377 8.76635C9.61656 8.64914 9.45759 8.58329 9.29183 8.58329H5.12516C4.9594 8.58329 4.80043 8.64914 4.68322 8.76635C4.56601 8.88356 4.50016 9.04253 4.50016 9.20829V9.62496C4.50016 10.4583 5.65266 11.0833 7.2085 11.0833C8.76433 11.0833 9.91683 10.4583 9.91683 9.62496V9.20829ZM8.66683 6.28746C8.66683 5.48329 8.01433 4.83329 7.2085 4.83329C6.40266 4.83329 5.75016 5.48246 5.75016 6.28746C5.75016 6.67423 5.90381 7.04517 6.1773 7.31866C6.45079 7.59215 6.82172 7.74579 7.2085 7.74579C7.59527 7.74579 7.9662 7.59215 8.23969 7.31866C8.51318 7.04517 8.66683 6.67423 8.66683 6.28746ZM0.333496 2.74996C0.333496 2.19742 0.552989 1.66752 0.94369 1.27682C1.33439 0.886119 1.8643 0.666626 2.41683 0.666626H12.0002C12.2737 0.666626 12.5447 0.720513 12.7974 0.82521C13.0502 0.929908 13.2798 1.08336 13.4733 1.27682C13.6668 1.47028 13.8202 1.69994 13.9249 1.9527C14.0296 2.20546 14.0835 2.47637 14.0835 2.74996V14.625C14.0835 14.7907 14.0176 14.9497 13.9004 15.0669C13.7832 15.1841 13.6243 15.25 13.4585 15.25H1.5835C1.5835 15.471 1.67129 15.6829 1.82757 15.8392C1.98385 15.9955 2.19582 16.0833 2.41683 16.0833H13.4585C13.6243 16.0833 13.7832 16.1491 13.9004 16.2663C14.0176 16.3836 14.0835 16.5425 14.0835 16.7083C14.0835 16.8741 14.0176 17.033 13.9004 17.1502C13.7832 17.2674 13.6243 17.3333 13.4585 17.3333H2.41683C1.8643 17.3333 1.33439 17.1138 0.94369 16.7231C0.552989 16.3324 0.333496 15.8025 0.333496 15.25V2.74996ZM1.5835 2.74996V14H12.8335V2.74996C12.8335 2.52895 12.7457 2.31698 12.5894 2.1607C12.4331 2.00442 12.2212 1.91663 12.0002 1.91663H2.41683C2.19582 1.91663 1.98385 2.00442 1.82757 2.1607C1.67129 2.31698 1.5835 2.52895 1.5835 2.74996Z" fill="#6B62E2"/>
</svg>
