<svg width="16" height="16" viewBox="0 0 16 16" fill="none" xmlns="http://www.w3.org/2000/svg">
<path d="M6.65005 2.6001H9.35005C9.35005 2.24206 9.20782 1.89868 8.95464 1.6455C8.70147 1.39233 8.35809 1.2501 8.00005 1.2501C7.64201 1.2501 7.29863 1.39233 7.04545 1.6455C6.79228 1.89868 6.65005 2.24206 6.65005 2.6001ZM5.75005 2.6001C5.75005 2.00336 5.9871 1.43106 6.40906 1.00911C6.83102 0.587151 7.40331 0.350098 8.00005 0.350098C8.59679 0.350098 9.16908 0.587151 9.59104 1.00911C10.013 1.43106 10.25 2.00336 10.25 2.6001H14.75C14.8694 2.6001 14.9839 2.64751 15.0682 2.7319C15.1526 2.81629 15.2 2.93075 15.2 3.0501C15.2 3.16945 15.1526 3.2839 15.0682 3.3683C14.9839 3.45269 14.8694 3.5001 14.75 3.5001H13.8014L12.7268 12.8097C12.6509 13.4678 12.3357 14.075 11.8411 14.5157C11.3466 14.9565 10.7073 15.2001 10.0448 15.2001H5.95525C5.29281 15.2001 4.6535 14.9565 4.15897 14.5157C3.66444 14.075 3.34921 13.4678 3.27325 12.8097L2.19865 3.5001H1.25005C1.1307 3.5001 1.01624 3.45269 0.931851 3.3683C0.847459 3.2839 0.800049 3.16945 0.800049 3.0501C0.800049 2.93075 0.847459 2.81629 0.931851 2.7319C1.01624 2.64751 1.1307 2.6001 1.25005 2.6001H5.75005ZM4.16695 12.7071C4.21773 13.1458 4.42799 13.5504 4.75773 13.8442C5.08746 14.1379 5.51366 14.3002 5.95525 14.3001H10.0448C10.4864 14.3002 10.9126 14.1379 11.2424 13.8442C11.5721 13.5504 11.7824 13.1458 11.8331 12.7071L12.8951 3.5001H3.10495L4.16695 12.7071ZM6.65005 5.7501C6.7694 5.7501 6.88386 5.79751 6.96825 5.8819C7.05264 5.96629 7.10005 6.08075 7.10005 6.2001V11.6001C7.10005 11.7194 7.05264 11.8339 6.96825 11.9183C6.88386 12.0027 6.7694 12.0501 6.65005 12.0501C6.5307 12.0501 6.41624 12.0027 6.33185 11.9183C6.24746 11.8339 6.20005 11.7194 6.20005 11.6001V6.2001C6.20005 6.08075 6.24746 5.96629 6.33185 5.8819C6.41624 5.79751 6.5307 5.7501 6.65005 5.7501ZM9.80005 6.2001C9.80005 6.08075 9.75264 5.96629 9.66825 5.8819C9.58386 5.79751 9.4694 5.7501 9.35005 5.7501C9.2307 5.7501 9.11624 5.79751 9.03185 5.8819C8.94746 5.96629 8.90005 6.08075 8.90005 6.2001V11.6001C8.90005 11.7194 8.94746 11.8339 9.03185 11.9183C9.11624 12.0027 9.2307 12.0501 9.35005 12.0501C9.4694 12.0501 9.58386 12.0027 9.66825 11.9183C9.75264 11.8339 9.80005 11.7194 9.80005 11.6001V6.2001Z" fill="#283138"/>
</svg>
