<svg width="10" height="18" viewBox="0 0 10 18" fill="none" xmlns="http://www.w3.org/2000/svg">
<path d="M4.28571 0V1.45C2.30714 1.595 0.714286 3.25429 0.714286 5.26786C0.714286 7.11357 2.04571 8.68786 3.86143 9.01786L4.28571 9.10714V14.2857H3.83929C3.52252 14.2864 3.20875 14.2245 2.91597 14.1036C2.62319 13.9826 2.35717 13.8051 2.13318 13.5811C1.9092 13.3571 1.73165 13.0911 1.61073 12.7983C1.48982 12.5055 1.42791 12.1918 1.42857 11.875V10.7143H0V11.875C0 13.9821 1.73286 15.7143 3.83929 15.7143H4.28571V17.1429H5.71429V15.7143H6.16071C8.26643 15.7143 10 13.9814 10 11.875C10 10.0293 8.66929 8.455 6.85286 8.125L5.71429 7.90143V2.88C6.30316 2.94346 6.84778 3.22243 7.24336 3.66324C7.63894 4.10405 7.85756 4.67557 7.85714 5.26786V6.42857H9.28571V5.26786C9.28571 3.25357 7.69286 1.595 5.71429 1.45071V0H4.28571ZM4.28571 2.87857V7.63428L4.10714 7.61143C3.55559 7.51618 3.05564 7.22857 2.69603 6.79965C2.33642 6.37074 2.14044 5.82828 2.14286 5.26857C2.14225 4.67608 2.36076 4.1043 2.75635 3.66322C3.15193 3.22214 3.69665 2.94292 4.28571 2.87929V2.87857ZM5.71429 9.375L6.60714 9.53214C7.15876 9.62726 7.65879 9.91483 8.01843 10.3438C8.37806 10.7727 8.57399 11.3153 8.57143 11.875C8.57199 12.1917 8.51002 12.5055 8.38907 12.7982C8.26812 13.0909 8.09057 13.3569 7.86661 13.5809C7.64264 13.8049 7.37666 13.9824 7.08392 14.1034C6.79119 14.2243 6.47745 14.2863 6.16071 14.2857H5.71429V9.375Z" fill="#6B62E2"/>
</svg>
