<svg width="18" height="18" viewBox="0 0 18 18" fill="none" xmlns="http://www.w3.org/2000/svg">
<path d="M7.75 4.625C7.75 4.45924 7.81585 4.30027 7.93306 4.18306C8.05027 4.06585 8.20924 4 8.375 4C8.54076 4 8.69973 4.06585 8.81694 4.18306C8.93415 4.30027 9 4.45924 9 4.625V9H11.5C11.6658 9 11.8247 9.06585 11.9419 9.18306C12.0592 9.30027 12.125 9.45924 12.125 9.625C12.125 9.79076 12.0592 9.94973 11.9419 10.0669C11.8247 10.1842 11.6658 10.25 11.5 10.25H8.375C8.20924 10.25 8.05027 10.1842 7.93306 10.0669C7.81585 9.94973 7.75 9.79076 7.75 9.625V4.625ZM9 17.75C13.8325 17.75 17.75 13.8325 17.75 9C17.75 4.1675 13.8325 0.25 9 0.25C4.1675 0.25 0.25 4.1675 0.25 9C0.25 13.8325 4.1675 17.75 9 17.75ZM9 16.5C4.85813 16.5 1.5 13.1419 1.5 9C1.5 4.85813 4.85813 1.5 9 1.5C13.1419 1.5 16.5 4.85813 16.5 9C16.5 13.1419 13.1419 16.5 9 16.5Z" fill="#6B62E2"/>
</svg>
