<svg width="18" height="14" viewBox="0 0 18 14" fill="none" xmlns="http://www.w3.org/2000/svg">
<path d="M16.778 0.333313H1.22244C0.927754 0.333313 0.645139 0.450376 0.436765 0.65875C0.228391 0.867124 0.111328 1.14974 0.111328 1.44442V12.5555C0.111328 12.8502 0.228391 13.1328 0.436765 13.3412C0.645139 13.5496 0.927754 13.6666 1.22244 13.6666H16.778C17.0727 13.6666 17.3553 13.5496 17.5637 13.3412C17.772 13.1328 17.8891 12.8502 17.8891 12.5555V1.44442C17.8891 1.14974 17.772 0.867124 17.5637 0.65875C17.3553 0.450376 17.0727 0.333313 16.778 0.333313ZM15.9224 12.5555H2.14466L6.03355 8.53331L5.23355 7.76109L1.22244 11.9111V2.28887L8.128 9.16109C8.33618 9.36804 8.61779 9.48419 8.91133 9.48419C9.20487 9.48419 9.48648 9.36804 9.69466 9.16109L16.778 2.11665V11.8389L12.6891 7.74998L11.9058 8.53331L15.9224 12.5555ZM1.95022 1.44442H15.878L8.91133 8.3722L1.95022 1.44442Z" fill="#6B62E2"/>
</svg>
