<svg width="18" height="18" viewBox="0 0 18 18" fill="none" xmlns="http://www.w3.org/2000/svg">
<path d="M9.01494 2.1825C6.53244 2.1825 4.51494 4.19999 4.51494 6.68249V8.84999C4.51494 9.30749 4.31994 10.005 4.08744 10.395L3.22494 11.8275C2.69244 12.7125 3.05994 13.695 4.03494 14.025C7.26744 15.105 10.7549 15.105 13.9874 14.025C14.8949 13.725 15.2924 12.6525 14.7974 11.8275L13.9349 10.395C13.7099 10.005 13.5149 9.30749 13.5149 8.84999V6.68249C13.5149 4.20749 11.4899 2.1825 9.01494 2.1825Z" stroke="#777E86" stroke-width="1.2" stroke-miterlimit="10" stroke-linecap="round"/>
<path d="M10.4024 2.39996C10.1699 2.33246 9.92994 2.27996 9.68244 2.24996C8.96244 2.15996 8.27244 2.21246 7.62744 2.39996C7.84494 1.84496 8.38494 1.45496 9.01494 1.45496C9.64494 1.45496 10.1849 1.84496 10.4024 2.39996Z" stroke="#777E86" stroke-width="1.2" stroke-miterlimit="10" stroke-linecap="round" stroke-linejoin="round"/>
<path d="M11.265 14.295C11.265 15.5325 10.2525 16.545 9.01501 16.545C8.40001 16.545 7.83001 16.29 7.42501 15.885C7.02001 15.48 6.76501 14.91 6.76501 14.295" stroke="#777E86" stroke-width="1.2" stroke-miterlimit="10"/>
</svg>
