<svg width="18" height="14" viewBox="0 0 18 14" fill="none" xmlns="http://www.w3.org/2000/svg">
<path d="M16.5 2.00004H11.0859L8.91406 0.375045C8.69879 0.21069 8.4349 0.122726 8.16406 0.125045H4.625C4.29348 0.125045 3.97554 0.256741 3.74112 0.491161C3.5067 0.725582 3.375 1.04352 3.375 1.37504V2.62504H2.125C1.79348 2.62504 1.47554 2.75674 1.24112 2.99116C1.0067 3.22558 0.875 3.54352 0.875 3.87504V12.625C0.875 12.9566 1.0067 13.2745 1.24112 13.5089C1.47554 13.7433 1.79348 13.875 2.125 13.875H14.0703C14.3826 13.873 14.6814 13.7481 14.9022 13.5273C15.123 13.3065 15.248 13.0076 15.25 12.6954V11.375H16.5703C16.8826 11.373 17.1814 11.2481 17.4022 11.0273C17.623 10.8065 17.748 10.5076 17.75 10.1954V3.25004C17.75 2.91852 17.6183 2.60058 17.3839 2.36616C17.1495 2.13174 16.8315 2.00004 16.5 2.00004ZM14 12.625H2.125V3.87504H5.66406L7.83594 5.50004C8.05121 5.6644 8.3151 5.75236 8.58594 5.75004H14V12.625ZM16.5 10.125H15.25V5.75004C15.25 5.41852 15.1183 5.10058 14.8839 4.86616C14.6495 4.63174 14.3315 4.50004 14 4.50004H8.58594L6.41406 2.87504C6.19879 2.71069 5.9349 2.62273 5.66406 2.62504H4.625V1.37504H8.16406L10.3359 3.00004C10.5512 3.1644 10.8151 3.25236 11.0859 3.25004H16.5V10.125Z" fill="#6B62E2"/>
</svg>
