<svg width="20" height="20" viewBox="0 0 20 20" fill="none" xmlns="http://www.w3.org/2000/svg">
<path d="M10.0002 9.4444C10.7694 9.4444 11.5212 9.21632 12.1608 8.78901C12.8003 8.36169 13.2987 7.75433 13.5931 7.04373C13.8874 6.33313 13.9644 5.5512 13.8144 4.79683C13.6643 4.04246 13.2939 3.34953 12.7501 2.80566C12.2062 2.26179 11.5133 1.89141 10.7589 1.74135C10.0045 1.5913 9.2226 1.66831 8.512 1.96265C7.8014 2.25699 7.19404 2.75544 6.76672 3.39497C6.33941 4.03449 6.11133 4.78637 6.11133 5.55552C6.11133 6.58691 6.52105 7.57607 7.25036 8.30537C7.97967 9.03468 8.96882 9.4444 10.0002 9.4444ZM10.0002 2.77774C10.5496 2.77774 11.0867 2.94065 11.5435 3.24588C12.0003 3.5511 12.3563 3.98493 12.5665 4.49251C12.7768 5.00008 12.8318 5.5586 12.7246 6.09743C12.6174 6.63627 12.3529 7.13122 11.9644 7.5197C11.5759 7.90818 11.081 8.17274 10.5421 8.27992C10.0033 8.3871 9.44478 8.33209 8.93721 8.12185C8.42963 7.9116 7.99581 7.55557 7.69058 7.09877C7.38535 6.64196 7.22244 6.10491 7.22244 5.55552C7.22244 4.8188 7.5151 4.11227 8.03603 3.59133C8.55697 3.0704 9.2635 2.77774 10.0002 2.77774Z" fill="#6B62E2"/>
<path d="M16.9278 13.5389C16.0369 12.5973 14.9633 11.8472 13.7726 11.3346C12.5819 10.822 11.2992 10.5576 10.0028 10.5576C8.70649 10.5576 7.42377 10.822 6.23309 11.3346C5.0424 11.8472 3.96877 12.5973 3.07783 13.5389C2.88467 13.7453 2.77739 14.0174 2.77783 14.3001V17.2223C2.77783 17.517 2.8949 17.7996 3.10327 18.008C3.31164 18.2163 3.59426 18.3334 3.88894 18.3334H16.1112C16.4059 18.3334 16.6885 18.2163 16.8968 18.008C17.1052 17.7996 17.2223 17.517 17.2223 17.2223V14.3001C17.2242 14.0182 17.119 13.7461 16.9278 13.5389ZM16.1112 17.2223H3.88894V14.2945C4.67629 13.4654 5.62411 12.8052 6.6747 12.3541C7.72529 11.903 8.8567 11.6703 10.0001 11.6703C11.1434 11.6703 12.2748 11.903 13.3254 12.3541C14.376 12.8052 15.3238 13.4654 16.1112 14.2945V17.2223Z" fill="#6B62E2"/>
</svg>
